<mxfile host="app.diagrams.net" modified="2022-12-16T01:55:46.191Z" agent="5.0 (Macintosh; Intel Mac OS X 10_15_7) AppleWebKit/537.36 (KHTML, like Gecko) Chrome/108.0.0.0 Safari/537.36" version="20.6.2" etag="OG9VaUeUWpvetl09iFD7" type="github">
  <diagram id="ZltH7TF5W4uVdSzqdrfy" name="第 1 页">
    <mxGraphModel dx="1538" dy="724" grid="1" gridSize="10" guides="1" tooltips="1" connect="1" arrows="1" fold="1" page="1" pageScale="1" pageWidth="3300" pageHeight="4681" math="0" shadow="0">
      <root>
        <mxCell id="0" />
        <mxCell id="1" parent="0" />
        <mxCell id="YLtkWgGDhUNkkEKrno72-1" value="&lt;font style=&quot;font-size: 14px;&quot;&gt;create&lt;br&gt;prioritisation&lt;br&gt;task&lt;br&gt;&lt;/font&gt;" style="ellipse;whiteSpace=wrap;html=1;aspect=fixed;" vertex="1" parent="1">
          <mxGeometry x="663.75" y="210" width="70" height="70" as="geometry" />
        </mxCell>
        <mxCell id="YLtkWgGDhUNkkEKrno72-2" value="&lt;font style=&quot;font-size: 14px;&quot;&gt;check AB Test toogle&lt;/font&gt;" style="rhombus;whiteSpace=wrap;html=1;fontSize=18;" vertex="1" parent="1">
          <mxGeometry x="620" y="330" width="157.5" height="90" as="geometry" />
        </mxCell>
        <mxCell id="YLtkWgGDhUNkkEKrno72-3" value="use old logic to create prioritisation task" style="rounded=1;whiteSpace=wrap;html=1;fontSize=14;" vertex="1" parent="1">
          <mxGeometry x="510" y="440" width="120" height="60" as="geometry" />
        </mxCell>
        <mxCell id="YLtkWgGDhUNkkEKrno72-4" value="" style="endArrow=classic;html=1;rounded=0;fontSize=14;exitX=0.5;exitY=1;exitDx=0;exitDy=0;entryX=0.5;entryY=0;entryDx=0;entryDy=0;" edge="1" parent="1" source="YLtkWgGDhUNkkEKrno72-1" target="YLtkWgGDhUNkkEKrno72-2">
          <mxGeometry width="50" height="50" relative="1" as="geometry">
            <mxPoint x="760" y="530" as="sourcePoint" />
            <mxPoint x="760" y="300" as="targetPoint" />
          </mxGeometry>
        </mxCell>
        <mxCell id="YLtkWgGDhUNkkEKrno72-5" value="" style="endArrow=classic;html=1;rounded=0;fontSize=14;edgeStyle=orthogonalEdgeStyle;entryX=0.5;entryY=0;entryDx=0;entryDy=0;exitX=0;exitY=0.5;exitDx=0;exitDy=0;" edge="1" parent="1" source="YLtkWgGDhUNkkEKrno72-2" target="YLtkWgGDhUNkkEKrno72-3">
          <mxGeometry width="50" height="50" relative="1" as="geometry">
            <mxPoint x="760" y="530" as="sourcePoint" />
            <mxPoint x="810" y="480" as="targetPoint" />
            <Array as="points">
              <mxPoint x="570" y="375" />
            </Array>
          </mxGeometry>
        </mxCell>
        <mxCell id="YLtkWgGDhUNkkEKrno72-6" value="off" style="text;html=1;align=center;verticalAlign=middle;resizable=0;points=[];autosize=1;strokeColor=none;fillColor=none;fontSize=14;" vertex="1" parent="1">
          <mxGeometry x="580" y="350" width="40" height="30" as="geometry" />
        </mxCell>
        <mxCell id="YLtkWgGDhUNkkEKrno72-7" value="call smart filter v2 filter API and check filter task state" style="rounded=1;whiteSpace=wrap;html=1;fontSize=14;" vertex="1" parent="1">
          <mxGeometry x="781.25" y="540" width="120" height="70" as="geometry" />
        </mxCell>
        <mxCell id="YLtkWgGDhUNkkEKrno72-8" value="" style="endArrow=classic;html=1;rounded=0;fontSize=14;edgeStyle=orthogonalEdgeStyle;entryX=0.5;entryY=0;entryDx=0;entryDy=0;exitX=1;exitY=0.5;exitDx=0;exitDy=0;" edge="1" parent="1" source="YLtkWgGDhUNkkEKrno72-2" target="YLtkWgGDhUNkkEKrno72-32">
          <mxGeometry width="50" height="50" relative="1" as="geometry">
            <mxPoint x="642.5" y="380" as="sourcePoint" />
            <mxPoint x="580" y="480" as="targetPoint" />
          </mxGeometry>
        </mxCell>
        <mxCell id="YLtkWgGDhUNkkEKrno72-9" value="on" style="text;html=1;align=center;verticalAlign=middle;resizable=0;points=[];autosize=1;strokeColor=none;fillColor=none;fontSize=14;" vertex="1" parent="1">
          <mxGeometry x="790" y="350" width="40" height="30" as="geometry" />
        </mxCell>
        <mxCell id="YLtkWgGDhUNkkEKrno72-10" value="if task use smart filter v2" style="rhombus;whiteSpace=wrap;html=1;fontSize=14;" vertex="1" parent="1">
          <mxGeometry x="722.5" y="660" width="237.5" height="110" as="geometry" />
        </mxCell>
        <mxCell id="YLtkWgGDhUNkkEKrno72-11" value="" style="endArrow=classic;html=1;rounded=0;fontSize=14;entryX=0.5;entryY=0;entryDx=0;entryDy=0;exitX=0.5;exitY=1;exitDx=0;exitDy=0;" edge="1" parent="1" source="YLtkWgGDhUNkkEKrno72-7" target="YLtkWgGDhUNkkEKrno72-10">
          <mxGeometry width="50" height="50" relative="1" as="geometry">
            <mxPoint x="943.75" y="650" as="sourcePoint" />
            <mxPoint x="843.75" y="600" as="targetPoint" />
          </mxGeometry>
        </mxCell>
        <mxCell id="YLtkWgGDhUNkkEKrno72-13" value="" style="endArrow=classic;html=1;rounded=0;fontSize=14;edgeStyle=orthogonalEdgeStyle;exitX=1;exitY=0.5;exitDx=0;exitDy=0;entryX=0.5;entryY=0;entryDx=0;entryDy=0;" edge="1" parent="1" source="YLtkWgGDhUNkkEKrno72-10" target="YLtkWgGDhUNkkEKrno72-16">
          <mxGeometry width="50" height="50" relative="1" as="geometry">
            <mxPoint x="732.5" y="725" as="sourcePoint" />
            <mxPoint x="1023.75" y="800" as="targetPoint" />
          </mxGeometry>
        </mxCell>
        <mxCell id="YLtkWgGDhUNkkEKrno72-14" value="yes" style="text;html=1;align=center;verticalAlign=middle;resizable=0;points=[];autosize=1;strokeColor=none;fillColor=none;fontSize=14;" vertex="1" parent="1">
          <mxGeometry x="668.75" y="685" width="50" height="30" as="geometry" />
        </mxCell>
        <mxCell id="YLtkWgGDhUNkkEKrno72-15" value="no" style="text;html=1;align=center;verticalAlign=middle;resizable=0;points=[];autosize=1;strokeColor=none;fillColor=none;fontSize=14;" vertex="1" parent="1">
          <mxGeometry x="973.75" y="685" width="40" height="30" as="geometry" />
        </mxCell>
        <mxCell id="YLtkWgGDhUNkkEKrno72-16" value="Call smart filter v1.5 score API to get v2 score for every user&#39;s task" style="rounded=1;whiteSpace=wrap;html=1;fontSize=14;" vertex="1" parent="1">
          <mxGeometry x="930" y="815" width="170" height="80" as="geometry" />
        </mxCell>
        <mxCell id="YLtkWgGDhUNkkEKrno72-25" value="Save score to the redis and complete `create prioritsation task process`" style="rounded=1;whiteSpace=wrap;html=1;fontSize=14;" vertex="1" parent="1">
          <mxGeometry x="930" y="960" width="170" height="80" as="geometry" />
        </mxCell>
        <mxCell id="YLtkWgGDhUNkkEKrno72-27" value="" style="endArrow=classic;html=1;rounded=0;fontSize=14;entryX=0.5;entryY=0;entryDx=0;entryDy=0;exitX=0.5;exitY=1;exitDx=0;exitDy=0;" edge="1" parent="1" source="YLtkWgGDhUNkkEKrno72-16" target="YLtkWgGDhUNkkEKrno72-25">
          <mxGeometry width="50" height="50" relative="1" as="geometry">
            <mxPoint x="851.25" y="620" as="sourcePoint" />
            <mxPoint x="851.25" y="670" as="targetPoint" />
          </mxGeometry>
        </mxCell>
        <mxCell id="YLtkWgGDhUNkkEKrno72-30" value="&lt;font style=&quot;font-size: 14px;&quot;&gt;if task use filtered_user file&lt;/font&gt;" style="rhombus;whiteSpace=wrap;html=1;" vertex="1" parent="1">
          <mxGeometry x="560" y="807.5" width="205" height="95" as="geometry" />
        </mxCell>
        <mxCell id="YLtkWgGDhUNkkEKrno72-31" value="" style="endArrow=classic;html=1;rounded=0;edgeStyle=orthogonalEdgeStyle;exitX=0;exitY=0.5;exitDx=0;exitDy=0;entryX=0.5;entryY=0;entryDx=0;entryDy=0;" edge="1" parent="1" source="YLtkWgGDhUNkkEKrno72-10" target="YLtkWgGDhUNkkEKrno72-30">
          <mxGeometry width="50" height="50" relative="1" as="geometry">
            <mxPoint x="758.75" y="750" as="sourcePoint" />
            <mxPoint x="808.75" y="700" as="targetPoint" />
          </mxGeometry>
        </mxCell>
        <mxCell id="YLtkWgGDhUNkkEKrno72-32" value="use new logic to create prioritisation" style="rounded=1;whiteSpace=wrap;html=1;fontSize=14;" vertex="1" parent="1">
          <mxGeometry x="782.5" y="430" width="120" height="70" as="geometry" />
        </mxCell>
        <mxCell id="YLtkWgGDhUNkkEKrno72-33" value="" style="endArrow=classic;html=1;rounded=0;exitX=0.5;exitY=1;exitDx=0;exitDy=0;" edge="1" parent="1" source="YLtkWgGDhUNkkEKrno72-32" target="YLtkWgGDhUNkkEKrno72-7">
          <mxGeometry width="50" height="50" relative="1" as="geometry">
            <mxPoint x="760" y="660" as="sourcePoint" />
            <mxPoint x="810" y="610" as="targetPoint" />
          </mxGeometry>
        </mxCell>
        <mxCell id="YLtkWgGDhUNkkEKrno72-34" value="For A and B group user to call smart filter v1.5 score API to get v2 score, for C and D group user to get filter_info and score form smart_filter_v2 s3 path" style="rounded=1;whiteSpace=wrap;html=1;fontSize=14;" vertex="1" parent="1">
          <mxGeometry x="370" y="950" width="240" height="100" as="geometry" />
        </mxCell>
        <mxCell id="YLtkWgGDhUNkkEKrno72-36" value="" style="endArrow=classic;html=1;rounded=0;fontSize=14;edgeStyle=orthogonalEdgeStyle;exitX=1;exitY=0.5;exitDx=0;exitDy=0;entryX=0;entryY=0.5;entryDx=0;entryDy=0;" edge="1" parent="1" source="YLtkWgGDhUNkkEKrno72-30" target="YLtkWgGDhUNkkEKrno72-16">
          <mxGeometry width="50" height="50" relative="1" as="geometry">
            <mxPoint x="767.5" y="850" as="sourcePoint" />
            <mxPoint x="818.75" y="960" as="targetPoint" />
          </mxGeometry>
        </mxCell>
        <mxCell id="YLtkWgGDhUNkkEKrno72-37" value="no" style="text;html=1;align=center;verticalAlign=middle;resizable=0;points=[];autosize=1;strokeColor=none;fillColor=none;fontSize=14;" vertex="1" parent="1">
          <mxGeometry x="800" y="830" width="40" height="30" as="geometry" />
        </mxCell>
        <mxCell id="YLtkWgGDhUNkkEKrno72-39" value="" style="endArrow=classic;html=1;rounded=0;edgeStyle=orthogonalEdgeStyle;exitX=0;exitY=0.5;exitDx=0;exitDy=0;entryX=0.5;entryY=0;entryDx=0;entryDy=0;" edge="1" parent="1" source="YLtkWgGDhUNkkEKrno72-30" target="YLtkWgGDhUNkkEKrno72-34">
          <mxGeometry width="50" height="50" relative="1" as="geometry">
            <mxPoint x="530" y="840" as="sourcePoint" />
            <mxPoint x="450" y="932.5" as="targetPoint" />
          </mxGeometry>
        </mxCell>
        <mxCell id="YLtkWgGDhUNkkEKrno72-40" value="yes" style="text;html=1;align=center;verticalAlign=middle;resizable=0;points=[];autosize=1;strokeColor=none;fillColor=none;fontSize=14;" vertex="1" parent="1">
          <mxGeometry x="510" y="830" width="50" height="30" as="geometry" />
        </mxCell>
        <mxCell id="YLtkWgGDhUNkkEKrno72-43" value="" style="endArrow=classic;html=1;rounded=0;fontSize=14;edgeStyle=orthogonalEdgeStyle;exitX=1;exitY=0.5;exitDx=0;exitDy=0;entryX=0;entryY=0.5;entryDx=0;entryDy=0;" edge="1" parent="1" source="YLtkWgGDhUNkkEKrno72-34" target="YLtkWgGDhUNkkEKrno72-25">
          <mxGeometry width="50" height="50" relative="1" as="geometry">
            <mxPoint x="755" y="865" as="sourcePoint" />
            <mxPoint x="970" y="865" as="targetPoint" />
          </mxGeometry>
        </mxCell>
      </root>
    </mxGraphModel>
  </diagram>
</mxfile>
